<svg width="30" height="30" viewBox="0 0 51 55" fill="none" xmlns="http://www.w3.org/2000/svg">
<path fill-rule="evenodd" clip-rule="evenodd" d="M34.9828 7.78701H34.4377C34.4377 4.03916 31.4394 1 27.6234 1H23.2622C19.4463 1 16.448 4.03916 16.448 7.78701H14.8126H13.9948V7.78701H7.45314C6.09028 7.78701 5 8.80098 5 10.0494C5 11.3005 6.09028 12.3117 7.45314 12.3117H9.6337V39.4625C9.6337 43.2103 12.632 46.2495 16.448 46.2495H34.4377C38.2536 46.2495 41.2519 43.2103 41.2519 39.4625V12.3117H43.4325C44.7953 12.3117 45.8856 11.3005 45.8856 10.0494C45.8856 8.80098 44.7953 7.78701 43.4325 7.78701H36.8908H36.6182H34.9828ZM36.6175 12.3117H32.2564H30.0758H20.8084H18.6278H13.9941V16.8364V39.4625C13.9941 40.7109 15.0844 41.7248 16.4473 41.7248H34.4369C35.7998 41.7248 36.6175 40.7109 36.6175 39.4625V16.8364V12.3117ZM20.8084 7.78708H23.2615H25.4421H27.6227H30.0758C30.0758 6.53871 28.9855 5.52474 27.6227 5.52474H23.2615C21.8987 5.52474 20.8084 6.53871 20.8084 7.78708ZM20.8089 16.8364C22.1718 16.8364 23.2621 17.8504" fill="black"/>
</svg>
